<?xml version="1.0" encoding="utf-8"?>
<!-- Generator: Adobe Illustrator 16.2.1, SVG Export Plug-In . SVG Version: 6.00 Build 0)  -->
<!DOCTYPE svg PUBLIC "-//W3C//DTD SVG 1.1//EN" "http://www.w3.org/Graphics/SVG/1.1/DTD/svg11.dtd">
<svg version="1.1" id="Layer_1" xmlns="http://www.w3.org/2000/svg" xmlns:xlink="http://www.w3.org/1999/xlink" x="0px" y="0px"
	 width="169.167px" height="178.167px" viewBox="0 0 169.167 178.167" enable-background="new 0 0 169.167 178.167"
	 xml:space="preserve">
<circle fill="none" stroke="#000000" stroke-width="2" stroke-miterlimit="10" cx="85.019" cy="88.689" r="82.185"/>
<path stroke="#000000" stroke-miterlimit="10" d="M144.827,82.063c-0.754-2.421-1.814-4.444-3.18-6.073
	c-1.367-1.629-3.032-2.866-4.995-3.706c-1.963-0.843-4.155-1.263-6.573-1.263c-1.928,0-3.794,0.297-5.6,0.894
	c-1.806,0.597-3.443,1.509-4.917,2.735c-1.473,1.227-2.725,2.77-3.758,4.627c-1.035,1.858-1.762,4.03-2.183,6.52
	c-0.562-4.733-2.008-8.377-4.338-10.938c-2.332-2.558-5.564-3.837-9.7-3.837c-3.365,0-6.485,1.034-9.358,3.102
	c-2.876,2.069-5.312,4.838-7.309,8.308l-0.15-9.163v-1.564c0.003-0.022,0.014-0.043,0.014-0.069c0-0.022-0.011-0.043-0.014-0.067
	v-0.035h-0.008c-0.049-0.247-0.255-0.436-0.516-0.436c-0.258,0-0.464,0.189-0.516,0.436h-0.022v0.329v1.432v50.096
	c0,0.347,0.283,0.627,0.628,0.627c0.346,0,0.628-0.28,0.628-0.627h0.007V84.062c2.102-3.751,4.548-6.688,7.334-8.809
	c2.787-2.119,5.844-3.181,9.175-3.181c2.174,0,4.101,0.415,5.784,1.236c1.684,0.824,3.093,2.024,4.233,3.602
	c1.139,1.577,1.998,3.496,2.576,5.756c0.579,2.262,0.868,4.831,0.868,7.702v33.022h0.03c0.005,0.336,0.278,0.609,0.617,0.609
	c0.341,0,0.617-0.276,0.617-0.618c0-0.006-0.002-0.012-0.002-0.02V90.369c0-3.048,0.438-5.711,1.315-7.99
	c0.875-2.278,2.049-4.18,3.521-5.705c1.473-1.525,3.166-2.673,5.076-3.444c1.91-0.771,3.898-1.157,5.967-1.157
	c4.663,0,8.264,1.57,10.808,4.707c2.54,3.138,3.809,7.667,3.809,13.59v33.022h0.008c0,0.347,0.28,0.627,0.628,0.627
	c0.346,0,0.628-0.28,0.628-0.627V90.369C145.959,87.252,145.582,84.482,144.827,82.063z"/>
<g>
	<path fill="none" stroke="#000000" stroke-miterlimit="10" d="M53.631,74.307c-2.771-1.489-5.961-2.235-9.57-2.235
		c-3.61,0-6.748,0.66-9.412,1.972c-2.665,1.314-4.882,3.13-6.651,5.444c-1.771,2.311-3.094,5.03-3.969,8.149
		c-0.877,3.12-1.315,6.485-1.315,10.095c0,8.552,1.637,14.898,4.916,19.033c3.277,4.138,8.089,6.204,14.434,6.204
		c3.821,0,7.37-1.068,10.649-3.206c3.275-2.138,6.105-5.083,8.49-8.834V81.957C58.923,78.348,56.398,75.797,53.631,74.307z"/>
	<g>
		<path fill="none" stroke="#000000" stroke-miterlimit="10" d="M53.631,74.307c-2.771-1.489-5.961-2.235-9.57-2.235
			c-3.61,0-6.748,0.66-9.412,1.972c-2.665,1.314-4.882,3.13-6.651,5.444c-1.771,2.311-3.094,5.03-3.969,8.149
			c-0.877,3.12-1.315,6.485-1.315,10.095c0,8.552,1.637,14.898,4.916,19.033c3.277,4.138,8.089,6.204,14.434,6.204
			c3.821,0,7.37-1.068,10.649-3.206c3.275-2.138,6.105-5.083,8.49-8.834V81.957C58.923,78.348,56.398,75.797,53.631,74.307z"/>
		<g>
			<path fill="none" stroke="#000000" stroke-miterlimit="10" d="M53.631,74.307c-2.771-1.489-5.961-2.235-9.57-2.235
				c-3.61,0-6.748,0.66-9.412,1.972c-2.665,1.314-4.882,3.13-6.651,5.444c-1.771,2.311-3.094,5.03-3.969,8.149
				c-0.877,3.12-1.315,6.485-1.315,10.095c0,8.552,1.637,14.898,4.916,19.033c3.277,4.138,8.089,6.204,14.434,6.204
				c3.821,0,7.37-1.068,10.649-3.206c3.275-2.138,6.105-5.083,8.49-8.834V81.957C58.923,78.348,56.398,75.797,53.631,74.307z"/>
			<path stroke="#000000" stroke-miterlimit="10" d="M62.464,123.268v-1.64V47.675c0-0.347-0.282-0.627-0.626-0.627
				c-0.347,0-0.628,0.281-0.628,0.627h-0.007v32.6c-1.963-3.154-4.364-5.485-7.203-6.994c-2.839-1.507-6.151-2.26-9.938-2.26
				c-3.75,0-7.038,0.693-9.859,2.077c-2.823,1.386-5.18,3.277-7.072,5.678c-1.893,2.402-3.312,5.232-4.259,8.493
				c-0.946,3.26-1.42,6.749-1.42,10.463c0,8.939,1.762,15.554,5.286,19.848c3.522,4.295,8.631,6.441,15.326,6.441
				c3.89,0,7.475-1.024,10.753-3.075c3.277-2.051,6.073-4.829,8.386-8.334l0.202,9.503v1.153c-0.009,0.042-0.025,0.082-0.025,0.125
				c0,0.304,0.25,0.553,0.556,0.553c0.305,0,0.554-0.249,0.554-0.553C62.488,123.349,62.474,123.31,62.464,123.268z M61.202,110.928
				c-2.385,3.751-5.215,6.696-8.49,8.834c-3.279,2.138-6.828,3.206-10.649,3.206c-6.345,0-11.157-2.066-14.434-6.204
				c-3.278-4.135-4.916-10.481-4.916-19.033c0-3.61,0.438-6.975,1.315-10.095c0.875-3.119,2.198-5.838,3.969-8.149
				c1.769-2.314,3.987-4.129,6.651-5.444c2.664-1.312,5.802-1.972,9.412-1.972c3.609,0,6.8,0.746,9.57,2.235
				c2.767,1.491,5.292,4.041,7.57,7.65V110.928z"/>
		</g>
	</g>
</g>
</svg>
